<?xml version="1.0" encoding="UTF-8" standalone="no"?>
<!DOCTYPE svg PUBLIC "-//W3C//DTD SVG 1.1//EN" "http://www.w3.org/Graphics/SVG/1.1/DTD/svg11.dtd">
<svg width="100%" height="100%" viewBox="0 0 264 160" version="1.1" xmlns="http://www.w3.org/2000/svg" xmlns:xlink="http://www.w3.org/1999/xlink" xml:space="preserve" xmlns:serif="http://www.serif.com/" style="fill-rule:evenodd;clip-rule:evenodd;stroke-linejoin:round;stroke-miterlimit:2;">
    <g transform="matrix(3.58333,0,0,3.58333,127.323,56.3079)">
        <g transform="matrix(1,0,0,1,-12,-12)">
            <path d="M19.957,4.035C19.612,4.011 19.275,4 18.945,4C11.778,4 7.697,9.464 6.213,13.861L10.152,17.799C14.676,16.18 20,12.25 20,5.16C20,4.793 19.986,4.419 19.957,4.035ZM10.559,15.85L8.157,13.448C9.175,11.065 12.067,5.993 18.323,5.681C18.113,10.493 14.955,13.957 10.559,15.85ZM15.118,17.132C14.662,17.443 14.21,17.724 13.762,17.974C13.606,18.716 13.21,19.509 12.636,20.184C12.635,19.704 12.501,19.22 12.267,18.735C11.854,18.922 11.462,19.083 11.088,19.225C11.639,20.649 11.078,21.701 10.325,22.687C11.405,22.606 12.539,22.077 13.431,21.183C14.396,20.221 15.071,18.831 15.118,17.132ZM5.269,11.74C4.787,11.508 4.304,11.376 3.826,11.373C4.495,10.806 5.279,10.412 6.014,10.252C6.276,9.791 6.57,9.337 6.879,8.891C5.18,8.937 3.789,9.614 2.825,10.577C1.932,11.47 1.404,12.604 1.322,13.683C2.308,12.93 3.361,12.37 4.785,12.921C4.93,12.53 5.09,12.136 5.269,11.74ZM11.717,12.293C11.391,11.968 11.391,11.44 11.717,11.115C12.042,10.789 12.57,10.789 12.895,11.115C13.221,11.441 13.221,11.969 12.895,12.294C12.569,12.619 12.042,12.619 11.717,12.293ZM15.841,8.168C15.191,7.518 14.135,7.518 13.485,8.168C12.834,8.819 12.834,9.875 13.485,10.525C14.135,11.176 15.191,11.176 15.842,10.525C16.492,9.875 16.492,8.819 15.841,8.168ZM14.25,9.76C14.022,9.532 14.022,9.162 14.25,8.935C14.477,8.707 14.848,8.707 15.076,8.935C15.303,9.162 15.302,9.532 15.076,9.76C14.848,9.987 14.478,9.987 14.25,9.76ZM1.641,20.315L0.886,19.56L5.227,15.237L5.982,15.992L1.641,20.315ZM5.789,21.862L5.034,21.107L8.064,18.053L8.82,18.808L5.789,21.862ZM0.755,24L0,23.245L5.373,17.881L6.129,18.636L0.755,24ZM21.838,9.709C21.65,10.327 21.165,10.811 20.547,11C21.165,11.188 21.65,11.672 21.838,12.291C22.027,11.672 22.511,11.188 23.129,11C22.511,10.812 22.027,10.328 21.838,9.709ZM7.183,3.205C6.936,4.015 6.302,4.648 5.493,4.895C6.303,5.142 6.936,5.776 7.183,6.585C7.431,5.776 8.064,5.142 8.873,4.895C8.063,4.648 7.431,4.015 7.183,3.205ZM5.356,0C5.157,0.649 4.65,1.157 4,1.355C4.65,1.554 5.157,2.062 5.356,2.71C5.554,2.061 6.062,1.553 6.71,1.355C6.062,1.157 5.555,0.649 5.356,0ZM10.743,0C10.427,1.035 9.616,1.846 8.58,2.163C9.616,2.479 10.427,3.289 10.743,4.326C11.059,3.29 11.87,2.48 12.905,2.163C11.87,1.846 11.06,1.035 10.743,0ZM21.838,13.64C21.522,14.676 20.711,15.486 19.675,15.803C20.711,16.119 21.522,16.965 21.838,18C22.154,16.964 22.965,16.119 24,15.803C22.965,15.486 22.154,14.676 21.838,13.64Z" style="fill-rule:nonzero;"/>
        </g>
    </g>
    <g transform="matrix(1,0,0,1,-244,-112)">
        <text x="255px" y="252px" style="font-family:'Ayuthaya';font-size:40px;">space park</text>
    </g>
</svg>
